<svg width="62" height="63" viewBox="0 0 62 63" fill="none" xmlns="http://www.w3.org/2000/svg">
<g id="social" clip-path="url(#clip0_1_533)" filter="url(#filter0_dd_1_533)">
<circle id="Ellipse 17" cx="31.0416" cy="23.2979" r="10.8917" fill="white"/>
<path id="Vector" d="M38.0499 24.7926L31.0281 29.6513L24.0062 24.7926C23.9121 24.7267 23.8423 24.6341 23.8067 24.5281C23.7712 24.4221 23.7718 24.3082 23.8084 24.2025L24.6128 21.8297L26.2216 17.1154C26.2372 17.077 26.262 17.0426 26.2941 17.015C26.3463 16.9695 26.4145 16.9443 26.4853 16.9443C26.5561 16.9443 26.6243 16.9695 26.6765 17.015C26.7104 17.0461 26.7353 17.085 26.749 17.128L28.3578 21.8297H33.6983L35.3071 17.1154C35.3227 17.077 35.3475 17.0426 35.3796 17.015C35.4319 16.9695 35.5001 16.9443 35.5708 16.9443C35.6416 16.9443 35.7098 16.9695 35.762 17.015C35.7959 17.0461 35.8209 17.085 35.8345 17.128L37.4433 21.8422L38.2807 24.2025C38.314 24.3114 38.3095 24.4277 38.2679 24.534C38.2264 24.6403 38.1499 24.731 38.0499 24.7926V24.7926Z" stroke="black" stroke-width="0.907639" stroke-linecap="round" stroke-linejoin="round"/>
</g>
<defs>
<filter id="filter0_dd_1_533" x="0.149963" y="0.40625" width="61.7833" height="61.7834" filterUnits="userSpaceOnUse" color-interpolation-filters="sRGB">
<feFlood flood-opacity="0" result="BackgroundImageFix"/>
<feColorMatrix in="SourceAlpha" type="matrix" values="0 0 0 0 0 0 0 0 0 0 0 0 0 0 0 0 0 0 127 0" result="hardAlpha"/>
<feMorphology radius="4" operator="erode" in="SourceAlpha" result="effect1_dropShadow_1_533"/>
<feOffset dy="8"/>
<feGaussianBlur stdDeviation="12"/>
<feColorMatrix type="matrix" values="0 0 0 0 0.0941176 0 0 0 0 0.152941 0 0 0 0 0.294118 0 0 0 0.08 0"/>
<feBlend mode="normal" in2="BackgroundImageFix" result="effect1_dropShadow_1_533"/>
<feColorMatrix in="SourceAlpha" type="matrix" values="0 0 0 0 0 0 0 0 0 0 0 0 0 0 0 0 0 0 127 0" result="hardAlpha"/>
<feMorphology radius="6" operator="erode" in="SourceAlpha" result="effect2_dropShadow_1_533"/>
<feOffset dy="6"/>
<feGaussianBlur stdDeviation="6"/>
<feColorMatrix type="matrix" values="0 0 0 0 0.0941176 0 0 0 0 0.152941 0 0 0 0 0.294118 0 0 0 0.12 0"/>
<feBlend mode="normal" in2="effect1_dropShadow_1_533" result="effect2_dropShadow_1_533"/>
<feBlend mode="normal" in="SourceGraphic" in2="effect2_dropShadow_1_533" result="shape"/>
</filter>
<clipPath id="clip0_1_533">
<rect width="21.7833" height="21.7833" fill="white" transform="translate(20.15 12.4062)"/>
</clipPath>
</defs>
</svg>
