<svg width="63" height="63" viewBox="0 0 63 63" fill="none" xmlns="http://www.w3.org/2000/svg">
<g id="social" clip-path="url(#clip0_1_534)" filter="url(#filter0_dd_1_534)">
<circle id="Ellipse 17" cx="31.3472" cy="23.2979" r="10.8917" fill="white"/>
<path id="Vector" d="M33.8607 30.5591V27.8863C33.8869 27.5569 33.8419 27.2259 33.7287 26.9151C33.6156 26.6043 33.4368 26.3208 33.2044 26.0837C35.3967 25.8419 37.7007 25.02 37.7007 21.2491C37.7005 20.2848 37.3256 19.3575 36.6534 18.6591C36.9717 17.8155 36.9492 16.883 36.5906 16.0554C36.5906 16.0554 35.7667 15.8136 33.8607 17.0775C32.2605 16.6485 30.5736 16.6485 28.9734 17.0775C27.0674 15.8136 26.2435 16.0554 26.2435 16.0554C25.8849 16.883 25.8624 17.8155 26.1807 18.6591C25.5035 19.3627 25.1282 20.2984 25.1334 21.2698C25.1334 25.0131 27.4374 25.835 29.6297 26.1044C29.4 26.3392 29.2228 26.6192 29.1098 26.9262C28.9967 27.2332 28.9502 27.5603 28.9734 27.8863V30.5591M28.9734 28.4871C25.4825 29.5231 25.4825 26.7605 24.0861 26.4152L28.9734 28.4871Z" stroke="black" stroke-width="0.907639" stroke-linecap="round" stroke-linejoin="round"/>
</g>
<defs>
<filter id="filter0_dd_1_534" x="0.455566" y="0.40625" width="61.7833" height="61.7834" filterUnits="userSpaceOnUse" color-interpolation-filters="sRGB">
<feFlood flood-opacity="0" result="BackgroundImageFix"/>
<feColorMatrix in="SourceAlpha" type="matrix" values="0 0 0 0 0 0 0 0 0 0 0 0 0 0 0 0 0 0 127 0" result="hardAlpha"/>
<feMorphology radius="4" operator="erode" in="SourceAlpha" result="effect1_dropShadow_1_534"/>
<feOffset dy="8"/>
<feGaussianBlur stdDeviation="12"/>
<feColorMatrix type="matrix" values="0 0 0 0 0.0941176 0 0 0 0 0.152941 0 0 0 0 0.294118 0 0 0 0.08 0"/>
<feBlend mode="normal" in2="BackgroundImageFix" result="effect1_dropShadow_1_534"/>
<feColorMatrix in="SourceAlpha" type="matrix" values="0 0 0 0 0 0 0 0 0 0 0 0 0 0 0 0 0 0 127 0" result="hardAlpha"/>
<feMorphology radius="6" operator="erode" in="SourceAlpha" result="effect2_dropShadow_1_534"/>
<feOffset dy="6"/>
<feGaussianBlur stdDeviation="6"/>
<feColorMatrix type="matrix" values="0 0 0 0 0.0941176 0 0 0 0 0.152941 0 0 0 0 0.294118 0 0 0 0.12 0"/>
<feBlend mode="normal" in2="effect1_dropShadow_1_534" result="effect2_dropShadow_1_534"/>
<feBlend mode="normal" in="SourceGraphic" in2="effect2_dropShadow_1_534" result="shape"/>
</filter>
<clipPath id="clip0_1_534">
<rect width="21.7833" height="21.7833" fill="white" transform="translate(20.4556 12.4062)"/>
</clipPath>
</defs>
</svg>
