<svg width="62" height="63" viewBox="0 0 62 63" fill="none" xmlns="http://www.w3.org/2000/svg">
<g id="social" filter="url(#filter0_dd_1_536)">
<circle id="Ellipse 17" cx="30.9583" cy="23.2979" r="10.8917" fill="white"/>
<path id="instagram" fill-rule="evenodd" clip-rule="evenodd" d="M27.5705 16.9445C25.9326 16.9445 24.6048 18.2723 24.6048 19.9102V26.7492C24.6048 28.3871 25.9326 29.7149 27.5705 29.7149H34.4096C36.0475 29.7149 37.3752 28.3871 37.3752 26.7492V19.9102C37.3752 18.2723 36.0475 16.9445 34.4096 16.9445H27.5705ZM23.6972 19.9102C23.6972 17.771 25.4314 16.0369 27.5705 16.0369H34.4096C36.5487 16.0369 38.2829 17.771 38.2829 19.9102V26.7492C38.2829 28.8884 36.5487 30.6225 34.4096 30.6225H27.5705C25.4314 30.6225 23.6972 28.8884 23.6972 26.7492V19.9102ZM31.3545 21.0429C30.8797 20.9725 30.3948 21.0536 29.9688 21.2747C29.5428 21.4957 29.1974 21.8455 28.9816 22.2742C28.7658 22.7029 28.6907 23.1887 28.767 23.6625C28.8432 24.1364 29.0669 24.5741 29.4063 24.9135C29.7457 25.2529 30.1834 25.4766 30.6573 25.5528C31.1311 25.6291 31.6169 25.554 32.0456 25.3382C32.4743 25.1224 32.8241 24.777 33.0451 24.351C33.2662 23.9249 33.3473 23.4401 33.2769 22.9653C33.2051 22.4811 32.9794 22.0327 32.6332 21.6866C32.2871 21.3404 31.8387 21.1147 31.3545 21.0429ZM29.5508 20.469C30.1463 20.16 30.824 20.0467 31.4876 20.1451C32.1645 20.2455 32.7912 20.5609 33.275 21.0448C33.7589 21.5286 34.0743 22.1553 34.1747 22.8322C34.2731 23.4958 34.1597 24.1735 33.8508 24.769C33.5418 25.3645 33.0529 25.8473 32.4537 26.1489C31.8545 26.4506 31.1754 26.5555 30.5131 26.449C29.8507 26.3424 29.2389 26.0297 28.7645 25.5553C28.2901 25.0809 27.9774 24.4691 27.8708 23.8067C27.7643 23.1444 27.8692 22.4653 28.1709 21.8661C28.4725 21.2669 28.9553 20.778 29.5508 20.469ZM34.7515 19.1143C34.5009 19.1143 34.2977 19.3175 34.2977 19.5681C34.2977 19.8188 34.5009 20.022 34.7515 20.022H34.7602C35.0108 20.022 35.214 19.8188 35.214 19.5681C35.214 19.3175 35.0108 19.1143 34.7602 19.1143H34.7515Z" fill="black"/>
</g>
<defs>
<filter id="filter0_dd_1_536" x="0.0666504" y="0.40625" width="61.7833" height="61.7834" filterUnits="userSpaceOnUse" color-interpolation-filters="sRGB">
<feFlood flood-opacity="0" result="BackgroundImageFix"/>
<feColorMatrix in="SourceAlpha" type="matrix" values="0 0 0 0 0 0 0 0 0 0 0 0 0 0 0 0 0 0 127 0" result="hardAlpha"/>
<feMorphology radius="4" operator="erode" in="SourceAlpha" result="effect1_dropShadow_1_536"/>
<feOffset dy="8"/>
<feGaussianBlur stdDeviation="12"/>
<feColorMatrix type="matrix" values="0 0 0 0 0.0941176 0 0 0 0 0.152941 0 0 0 0 0.294118 0 0 0 0.08 0"/>
<feBlend mode="normal" in2="BackgroundImageFix" result="effect1_dropShadow_1_536"/>
<feColorMatrix in="SourceAlpha" type="matrix" values="0 0 0 0 0 0 0 0 0 0 0 0 0 0 0 0 0 0 127 0" result="hardAlpha"/>
<feMorphology radius="6" operator="erode" in="SourceAlpha" result="effect2_dropShadow_1_536"/>
<feOffset dy="6"/>
<feGaussianBlur stdDeviation="6"/>
<feColorMatrix type="matrix" values="0 0 0 0 0.0941176 0 0 0 0 0.152941 0 0 0 0 0.294118 0 0 0 0.12 0"/>
<feBlend mode="normal" in2="effect1_dropShadow_1_536" result="effect2_dropShadow_1_536"/>
<feBlend mode="normal" in="SourceGraphic" in2="effect2_dropShadow_1_536" result="shape"/>
</filter>
</defs>
</svg>
