<svg width="1280" height="133" viewBox="0 0 1280 133" fill="none" xmlns="http://www.w3.org/2000/svg">
<path d="M-14 19.6785L29.9473 10.4914C99.2333 -3.99276 170.948 -2.05259 239.35 16.1565L273.111 25.144C334.073 41.3729 398.393 39.9474 458.577 21.0336C519.654 1.83888 584.971 0.661624 646.701 17.6429L692.032 30.1127C739.877 43.2745 789.557 48.5001 839.094 45.5813L918.57 40.8985C946.966 39.2254 975.141 34.8862 1002.73 27.9382L1034.03 20.0525C1108.06 1.40571 1185.6 1.73492 1259.46 21.0096L1293 29.7607V128.706L-14 132.778V19.6785Z" fill="url(#paint0_linear_1_525)" fill-opacity="0.5"/>
<defs>
<linearGradient id="paint0_linear_1_525" x1="-82.5743" y1="59.4894" x2="1573.2" y2="59.4894" gradientUnits="userSpaceOnUse">
<stop stop-color="#0052D4"/>
<stop offset="0.5" stop-color="#4364F7"/>
<stop offset="1" stop-color="#6FB1FC"/>
</linearGradient>
</defs>
</svg>
