<svg width="1280" height="117" viewBox="0 0 1280 117" fill="none" xmlns="http://www.w3.org/2000/svg">
<path d="M-14 0.0456543L74.9721 18.5546C130.556 30.1179 187.998 29.3765 243.265 16.3825C289.205 5.58141 336.727 3.22828 383.509 9.43806L418.684 14.107C459.212 19.4867 500.282 19.365 540.778 13.7454L564.436 10.4623C614.096 3.571 664.578 5.42021 713.6 15.9263C773.63 28.7915 835.719 28.6486 895.69 15.5075L897.429 15.1263C943.017 5.13673 989.908 2.49595 1036.33 7.30387L1082.55 12.0908C1113.55 15.3015 1144.8 15.3104 1175.8 12.1173L1293 0.0456543V134.376H-14V0.0456543Z" fill="url(#paint0_linear_1_527)" fill-opacity="0.8"/>
<defs>
<linearGradient id="paint0_linear_1_527" x1="-14" y1="67.2109" x2="1293" y2="67.2109" gradientUnits="userSpaceOnUse">
<stop stop-color="#0052D4"/>
<stop offset="0.5" stop-color="#4364F7"/>
<stop offset="1" stop-color="#6FB1FC"/>
</linearGradient>
</defs>
</svg>
