<svg width="1280" height="121" viewBox="0 0 1280 121" fill="none" xmlns="http://www.w3.org/2000/svg">
<path d="M-14 37.1746L74.9465 14.6446C129.157 0.913301 186.18 3.14239 239.153 21.0636L266.252 30.2314C314.132 46.4296 366.218 45.0294 413.158 26.2823C460.784 7.26155 513.682 6.10662 562.092 23.0306L578.819 28.8781C627.744 45.9822 681.082 45.6293 729.777 27.8791C772.366 12.3547 818.657 10.0879 862.559 21.377L887.963 27.9093C941.236 41.6083 997.461 38.2948 1048.76 18.4333C1094.5 0.72229 1144.28 -3.87193 1192.49 5.16758L1293 24.0139V138.376H-14V37.1746Z" fill="url(#paint0_linear_1_526)"/>
<defs>
<linearGradient id="paint0_linear_1_526" x1="-14" y1="64.8576" x2="1293" y2="64.8576" gradientUnits="userSpaceOnUse">
<stop stop-color="#0052D4"/>
<stop offset="0.5" stop-color="#4364F7"/>
<stop offset="1" stop-color="#6FB1FC"/>
</linearGradient>
</defs>
</svg>
