<svg xmlns="http://www.w3.org/2000/svg" width="102" height="102" viewBox="0 0 102 102" fill="none">
  <line x1="1" y1="-1" x2="3.75373" y2="-1" transform="matrix(0.248678 0.968586 -0.716453 0.697636 0 1.5)" stroke="#140005" stroke-width="2" stroke-linecap="round"/>
  <line x1="1" y1="-1" x2="3.75373" y2="-1" transform="matrix(0.248678 0.968586 -0.716453 0.697636 0 20.5791)" stroke="#140005" stroke-width="2" stroke-linecap="round"/>
  <line x1="1" y1="-1" x2="3.75373" y2="-1" transform="matrix(0.248678 0.968586 -0.716453 0.697636 0 39.6583)" stroke="#140005" stroke-width="2" stroke-linecap="round"/>
  <line x1="1" y1="-1" x2="3.75373" y2="-1" transform="matrix(0.248678 0.968586 -0.716453 0.697636 0 58.7374)" stroke="#140005" stroke-width="2" stroke-linecap="round"/>
  <line x1="1" y1="-1" x2="3.75373" y2="-1" transform="matrix(0.248678 0.968586 -0.716453 0.697636 0 77.8165)" stroke="#140005" stroke-width="2" stroke-linecap="round"/>
  <line x1="1" y1="-1" x2="3.75373" y2="-1" transform="matrix(0.248678 0.968586 -0.716453 0.697636 0 96.8956)" stroke="#140005" stroke-width="2" stroke-linecap="round"/>
  <line x1="1" y1="-1" x2="3.75373" y2="-1" transform="matrix(0.248678 0.968586 -0.716453 0.697636 19.7636 1.5)" stroke="#140005" stroke-width="2" stroke-linecap="round"/>
  <line x1="1" y1="-1" x2="3.75373" y2="-1" transform="matrix(0.248678 0.968586 -0.716453 0.697636 19.7636 20.5791)" stroke="#140005" stroke-width="2" stroke-linecap="round"/>
  <line x1="1" y1="-1" x2="3.75373" y2="-1" transform="matrix(0.248678 0.968586 -0.716453 0.697636 19.7636 39.6583)" stroke="#140005" stroke-width="2" stroke-linecap="round"/>
  <line x1="1" y1="-1" x2="3.75373" y2="-1" transform="matrix(0.248678 0.968586 -0.716453 0.697636 19.7636 58.7374)" stroke="#140005" stroke-width="2" stroke-linecap="round"/>
  <line x1="1" y1="-1" x2="3.75373" y2="-1" transform="matrix(0.248678 0.968586 -0.716453 0.697636 19.7636 77.8165)" stroke="#140005" stroke-width="2" stroke-linecap="round"/>
  <line x1="1" y1="-1" x2="3.75373" y2="-1" transform="matrix(0.248678 0.968586 -0.716453 0.697636 19.7636 96.8956)" stroke="#140005" stroke-width="2" stroke-linecap="round"/>
  <line x1="1" y1="-1" x2="3.75373" y2="-1" transform="matrix(0.248678 0.968586 -0.716453 0.697636 39.5271 1.5)" stroke="#140005" stroke-width="2" stroke-linecap="round"/>
  <line x1="1" y1="-1" x2="3.75373" y2="-1" transform="matrix(0.248678 0.968586 -0.716453 0.697636 39.5271 20.5791)" stroke="#140005" stroke-width="2" stroke-linecap="round"/>
  <line x1="1" y1="-1" x2="3.75373" y2="-1" transform="matrix(0.248678 0.968586 -0.716453 0.697636 39.5271 39.6583)" stroke="#140005" stroke-width="2" stroke-linecap="round"/>
  <line x1="1" y1="-1" x2="3.75373" y2="-1" transform="matrix(0.248678 0.968586 -0.716453 0.697636 39.5271 58.7374)" stroke="#140005" stroke-width="2" stroke-linecap="round"/>
  <line x1="1" y1="-1" x2="3.75373" y2="-1" transform="matrix(0.248678 0.968586 -0.716453 0.697636 39.5271 77.8165)" stroke="#140005" stroke-width="2" stroke-linecap="round"/>
  <line x1="1" y1="-1" x2="3.75373" y2="-1" transform="matrix(0.248678 0.968586 -0.716453 0.697636 39.5271 96.8956)" stroke="#140005" stroke-width="2" stroke-linecap="round"/>
  <line x1="1" y1="-1" x2="3.75373" y2="-1" transform="matrix(0.248678 0.968586 -0.716453 0.697636 59.2907 1.5)" stroke="#140005" stroke-width="2" stroke-linecap="round"/>
  <line x1="1" y1="-1" x2="3.75373" y2="-1" transform="matrix(0.248678 0.968586 -0.716453 0.697636 59.2907 20.5791)" stroke="#140005" stroke-width="2" stroke-linecap="round"/>
  <line x1="1" y1="-1" x2="3.75373" y2="-1" transform="matrix(0.248678 0.968586 -0.716453 0.697636 59.2907 39.6583)" stroke="#140005" stroke-width="2" stroke-linecap="round"/>
  <line x1="1" y1="-1" x2="3.75373" y2="-1" transform="matrix(0.248678 0.968586 -0.716453 0.697636 59.2907 58.7374)" stroke="#140005" stroke-width="2" stroke-linecap="round"/>
  <line x1="1" y1="-1" x2="3.75373" y2="-1" transform="matrix(0.248678 0.968586 -0.716453 0.697636 59.2907 77.8165)" stroke="#140005" stroke-width="2" stroke-linecap="round"/>
  <line x1="1" y1="-1" x2="3.75373" y2="-1" transform="matrix(0.248678 0.968586 -0.716453 0.697636 59.2907 96.8956)" stroke="#140005" stroke-width="2" stroke-linecap="round"/>
  <line x1="1" y1="-1" x2="3.75373" y2="-1" transform="matrix(0.248678 0.968586 -0.716453 0.697636 79.0543 1.5)" stroke="#140005" stroke-width="2" stroke-linecap="round"/>
  <line x1="1" y1="-1" x2="3.75373" y2="-1" transform="matrix(0.248678 0.968586 -0.716453 0.697636 79.0543 20.5791)" stroke="#140005" stroke-width="2" stroke-linecap="round"/>
  <line x1="1" y1="-1" x2="3.75373" y2="-1" transform="matrix(0.248678 0.968586 -0.716453 0.697636 79.0543 39.6583)" stroke="#140005" stroke-width="2" stroke-linecap="round"/>
  <line x1="1" y1="-1" x2="3.75373" y2="-1" transform="matrix(0.248678 0.968586 -0.716453 0.697636 79.0543 58.7374)" stroke="#140005" stroke-width="2" stroke-linecap="round"/>
  <line x1="1" y1="-1" x2="3.75373" y2="-1" transform="matrix(0.248678 0.968586 -0.716453 0.697636 79.0543 77.8165)" stroke="#140005" stroke-width="2" stroke-linecap="round"/>
  <line x1="1" y1="-1" x2="3.75373" y2="-1" transform="matrix(0.248678 0.968586 -0.716453 0.697636 79.0543 96.8956)" stroke="#140005" stroke-width="2" stroke-linecap="round"/>
  <line x1="1" y1="-1" x2="3.75373" y2="-1" transform="matrix(0.248678 0.968586 -0.716453 0.697636 98.8179 1.5)" stroke="#140005" stroke-width="2" stroke-linecap="round"/>
  <line x1="1" y1="-1" x2="3.75373" y2="-1" transform="matrix(0.248678 0.968586 -0.716453 0.697636 98.8179 20.5791)" stroke="#140005" stroke-width="2" stroke-linecap="round"/>
  <line x1="1" y1="-1" x2="3.75373" y2="-1" transform="matrix(0.248678 0.968586 -0.716453 0.697636 98.8179 39.6583)" stroke="#140005" stroke-width="2" stroke-linecap="round"/>
  <line x1="1" y1="-1" x2="3.75373" y2="-1" transform="matrix(0.248678 0.968586 -0.716453 0.697636 98.8179 58.7374)" stroke="#140005" stroke-width="2" stroke-linecap="round"/>
  <line x1="1" y1="-1" x2="3.75373" y2="-1" transform="matrix(0.248678 0.968586 -0.716453 0.697636 98.8179 77.8165)" stroke="#140005" stroke-width="2" stroke-linecap="round"/>
  <line x1="1" y1="-1" x2="3.75373" y2="-1" transform="matrix(0.248678 0.968586 -0.716453 0.697636 98.8179 96.8956)" stroke="#140005" stroke-width="2" stroke-linecap="round"/>
</svg>