<svg width="623" height="208" viewBox="0 0 623 208" fill="none" xmlns="http://www.w3.org/2000/svg">
<path d="M53 133.172L11.5931 133.172L11.5931 101.263L21.7856 101.263L21.7856 121.069L28.5612 121.069L28.5612 104.68L37.9429 104.68L37.9429 121.069L53 121.069L53 133.172ZM47.9617 61.7265C51.9769 65.5873 53.9845 70.6835 53.9845 77.0152C53.9845 83.3469 51.9769 88.4238 47.9617 92.246C43.9079 96.0682 38.7344 97.9792 32.4413 97.9792C26.1482 97.9792 20.9748 96.0682 16.921 92.246C12.8672 88.4238 10.8402 83.3469 10.8402 77.0152C10.8402 70.6835 12.8672 65.5873 16.921 61.7265C20.9748 57.8657 26.1483 55.9353 32.4413 55.9353C38.7344 55.9353 43.9079 57.8657 47.9617 61.7265ZM41.0123 83.4434C43.2129 81.9377 44.3132 79.7756 44.3132 76.9573C44.3132 74.1389 43.2129 71.9769 41.0123 70.4712C38.8116 68.9654 35.9546 68.2126 32.4413 68.2126C28.928 68.2126 26.071 68.9654 23.8704 70.4712C21.6311 71.9769 20.5115 74.1389 20.5115 76.9573C20.5115 79.7756 21.6311 81.9377 23.8704 83.4434C26.071 84.9491 28.928 85.7019 32.4413 85.7019C35.9546 85.7019 38.8116 84.9491 41.0123 83.4434ZM53 50.2681L11.5931 50.2681L11.5931 29.7094C11.5931 25.1923 12.6548 21.4666 14.7782 18.5324C16.8631 15.5596 19.9131 14.0732 23.9283 14.0732C28.5998 14.0732 31.9587 16.3318 34.0049 20.8489L34.1787 20.8489C35.3755 17.7217 37.6534 15.7913 41.0123 15.0577C42.3249 14.7489 43.9658 14.5558 45.9348 14.4786C47.8652 14.4014 49.3902 14.3049 50.5098 14.1891C51.6294 14.0732 52.2471 13.803 52.363 13.3783L53 13.3783L53 25.3081C52.7684 25.6556 52.1506 25.8872 51.1468 26.0031C50.1044 26.1189 48.7917 26.2347 47.2088 26.3505C45.6259 26.4664 44.3518 26.6401 43.3866 26.8717C41.7265 27.2578 40.5104 27.8755 39.7382 28.7249C38.9661 29.5743 38.58 30.8483 38.58 32.5471L38.58 38.1645L53 38.1645L53 50.2681ZM21.0906 38.1645L29.9511 38.1645L29.9511 31.6784C29.9511 28.0879 28.484 26.2926 25.5498 26.2926C24.1599 26.2926 23.0789 26.7366 22.3068 27.6246C21.496 28.5126 21.0906 29.8059 21.0906 31.5047L21.0906 38.1645Z" fill="#3F3F3F"/>
<path d="M261.775 193.763V179.534L247.887 153.231H260.755L265.063 162.244C265.516 163.151 265.97 164.153 266.423 165.249C266.877 166.345 267.217 167.195 267.444 167.8L267.784 168.763H267.897C268.767 166.458 269.692 164.285 270.675 162.244L274.983 153.231H287.568L273.623 179.534V193.763H261.775ZM319.532 188.831C315.753 192.761 310.764 194.726 304.566 194.726C298.368 194.726 293.399 192.761 289.657 188.831C285.916 184.863 284.045 179.799 284.045 173.639C284.045 167.479 285.916 162.414 289.657 158.446C293.399 154.478 298.368 152.494 304.566 152.494C310.764 152.494 315.753 154.478 319.532 158.446C323.311 162.414 325.201 167.479 325.201 173.639C325.201 179.799 323.311 184.863 319.532 188.831ZM298.274 182.028C299.748 184.182 301.864 185.26 304.623 185.26C307.382 185.26 309.498 184.182 310.972 182.028C312.446 179.874 313.183 177.078 313.183 173.639C313.183 170.2 312.446 167.403 310.972 165.249C309.498 163.057 307.382 161.961 304.623 161.961C301.864 161.961 299.748 163.057 298.274 165.249C296.8 167.403 296.063 170.2 296.063 173.639C296.063 177.078 296.8 179.874 298.274 182.028ZM345.714 194.5C339.742 194.5 335.226 193.101 332.165 190.305C329.142 187.47 327.63 183.464 327.63 178.287V153.231H339.478V178.967C339.478 180.895 340.007 182.387 341.065 183.446C342.161 184.504 343.767 185.033 345.884 185.033C347.849 185.033 349.342 184.466 350.362 183.332C351.42 182.161 351.949 180.63 351.949 178.74V153.231H363.797V178.287C363.797 183.389 362.266 187.376 359.205 190.248C356.144 193.082 351.647 194.5 345.714 194.5Z" fill="white"/>
<path d="M317.952 72.989L362.81 72.989L362.81 86.1012L317.952 86.1012L317.952 72.989ZM317.952 94.3149L362.81 94.3149L362.81 107.427L337.589 122.108L337.589 122.233L362.81 122.233L362.81 134.906L317.952 134.906L317.952 121.355L343.361 107.113L343.361 106.988L317.952 106.988L317.952 94.3149Z" fill="#3F3F3F"/>
<path d="M82.3995 56.8787L82.3995 24.8501L70.6085 24.8501V16.347L104.338 16.347V24.8501L92.4332 24.8501V56.8787H82.3995ZM107.507 56.8787V16.347H117.541V31.7093L131.769 31.7093V16.347L141.803 16.347V56.8787L131.769 56.8787V39.9857H117.541V56.8787H107.507ZM146.798 56.8787L146.798 16.347H177.523V24.6234L156.832 24.6234V31.8794L174.575 31.8794V39.7023H156.832V48.3755H177.863V56.8787H146.798Z" fill="#A82B2B"/>
<path d="M121.125 127.863H119.25C118.188 127.863 117.312 127.676 116.625 127.301C115.5 126.676 114.188 124.457 112.688 120.644L102.562 94.3005L90.1875 127.863H88.3125C87.25 127.863 86.375 127.676 85.6875 127.301C84.5625 126.676 83.25 124.457 81.75 120.644L63.75 74.1443H59.0625V71.613H84.4688V74.1443H76.9688L91.6875 115.113L100.875 90.0818L93.75 71.613H115.5V74.1443L108 74.0505L122.531 114.269L135.75 74.1443H128.25V71.613H143.719V74.1443H139.031L121.125 127.863ZM191.884 89.613H189.165L187.103 83.1443C186.915 82.5818 186.696 82.0193 186.446 81.4568C184.509 76.5818 180.978 74.1443 175.853 74.1443H165.259V97.488H183.259V100.301H165.259V125.332H175.853C177.04 125.332 178.165 125.207 179.228 124.957C182.79 124.019 185.384 121.144 187.009 116.332L189.165 109.863H191.884L191.509 127.863H144.634V125.332H152.134V74.1443H144.634V71.613H191.509L191.884 89.613ZM244.268 89.613H241.549L239.486 83.1443C239.299 82.5818 239.08 82.0193 238.83 81.4568C236.893 76.5818 233.361 74.1443 228.236 74.1443H217.643V97.488H235.643V100.301H217.643V125.332H228.236C229.424 125.332 230.549 125.207 231.611 124.957C235.174 124.019 237.768 121.144 239.393 116.332L241.549 109.863H244.268L243.893 127.863H197.018V125.332H204.518V74.1443H197.018V71.613H243.893L244.268 89.613ZM298.62 84.2693C298.62 85.5193 298.401 86.8005 297.964 88.113C296.401 92.488 292.807 95.5818 287.182 97.3943C288.682 97.5818 290.12 97.863 291.495 98.238C299.057 100.238 302.839 104.707 302.839 111.644C302.839 114.769 301.901 117.644 300.026 120.269C296.214 125.332 290.026 127.863 281.464 127.863H249.401V125.332H256.901V74.1443H249.401V71.613H279.776C283.214 71.613 286.276 71.988 288.964 72.738C295.401 74.613 298.62 78.4568 298.62 84.2693ZM274.526 74.1443H270.026V96.0818H275.276C276.401 96.0818 277.464 95.9568 278.464 95.7068C282.839 94.4568 285.026 90.8943 285.026 85.0193C284.964 77.8943 281.464 74.2693 274.526 74.1443ZM277.714 98.7068H270.026V125.332H276.307C277.12 125.332 277.932 125.269 278.745 125.144C285.245 124.207 288.495 119.488 288.495 110.988C288.495 109.113 288.214 107.363 287.651 105.738C286.026 101.051 282.714 98.7068 277.714 98.7068Z" fill="white"/>
<path d="M247.64 58.6587C246.52 58.6587 245.4 58.3987 244.28 57.8787C243.2 57.3587 242.18 56.5987 241.22 55.5987C239.82 54.1587 238.6 52.4387 237.56 50.4387C236.56 48.3987 235.7 46.3187 234.98 44.1987C234.26 42.0387 233.7 40.0787 233.3 38.3187C232.9 36.5187 232.62 35.1387 232.46 34.1787C230.98 37.0187 229.44 39.8387 227.84 42.6387C226.28 45.3987 224.28 48.1187 221.84 50.7987C219.52 53.3187 216.98 55.2187 214.22 56.4987C211.46 57.8187 208.6 58.4787 205.64 58.4787C204.72 58.4787 203.78 58.4187 202.82 58.2987C200.18 57.9787 198.24 57.2187 197 56.0187C195.76 54.8187 195.14 53.5387 195.14 52.1787C195.14 50.6987 195.8 49.3587 197.12 48.1587C198.44 46.9587 200.32 46.3587 202.76 46.3587C203.56 46.3587 204.42 46.4387 205.34 46.5987C206.26 46.7587 207.22 47.0187 208.22 47.3787C208.66 47.5387 208.88 47.7187 208.88 47.9187C208.88 48.0787 208.72 48.1587 208.4 48.1587C208.2 48.1587 208.04 48.1387 207.92 48.0987C206.6 47.6187 205.42 47.3787 204.38 47.3787C202.7 47.3787 201.42 47.8787 200.54 48.8787C199.66 49.8387 199.22 50.8987 199.22 52.0587C199.22 53.1787 199.7 54.2187 200.66 55.1787C201.62 56.1387 203.1 56.6187 205.1 56.6187C207.62 56.6187 209.94 56.0387 212.06 54.8787C214.18 53.6787 216.16 52.0587 218 50.0187C219.84 47.9387 221.6 45.5987 223.28 42.9987C224.96 40.3587 226.6 37.6187 228.2 34.7787C230.88 30.0187 233.3 25.6987 235.46 21.8187C237.66 17.8987 239.98 14.5787 242.42 11.8587C241.34 11.7387 240.24 11.6587 239.12 11.6187C238 11.5787 236.86 11.5587 235.7 11.5587C233.18 11.5587 230.56 11.6987 227.84 11.9787C225.16 12.2187 222.56 12.6187 220.04 13.1787C216.64 13.8987 213.72 14.9787 211.28 16.4187C208.84 17.8187 206.9 19.3987 205.46 21.1587C204.06 22.8787 203.18 24.6187 202.82 26.3787C202.7 27.0187 202.64 27.6387 202.64 28.2387C202.64 30.2787 203.32 31.8587 204.68 32.9787C206.04 34.0987 207.6 34.6587 209.36 34.6587C210.48 34.6587 211.6 34.4387 212.72 33.9987C213.88 33.5187 214.92 32.7787 215.84 31.7787C216.6 30.9787 217.16 30.2387 217.52 29.5587C217.88 28.8387 218.08 28.2987 218.12 27.9387C218.16 27.3787 218.28 27.0987 218.48 27.0987C218.6 27.0987 218.7 27.1987 218.78 27.3987C218.9 27.5987 218.94 27.7987 218.9 27.9987C218.74 28.9187 218.46 29.8187 218.06 30.6987C217.66 31.5787 217.18 32.3187 216.62 32.9187C215.5 34.0787 214.22 34.9387 212.78 35.4987C211.34 36.0587 209.96 36.3387 208.64 36.3387C207.08 36.3387 205.6 35.9987 204.2 35.3187C202.84 34.6387 201.74 33.6587 200.9 32.3787C200.06 31.0587 199.64 29.4387 199.64 27.5187C199.64 25.2787 200.42 22.9987 201.98 20.6787C203.54 18.3187 205.88 16.2387 209 14.4387C212.16 12.6387 216.08 11.3987 220.76 10.7187C223.12 10.3987 225.4 10.1587 227.6 9.99867C229.84 9.79867 232 9.69867 234.08 9.69867C235.76 9.69867 237.4 9.75867 239 9.87867C240.6 9.99867 242.18 10.1587 243.74 10.3587C244.78 9.27867 245.48 8.73867 245.84 8.73867C246.12 8.73867 246.26 8.95867 246.26 9.39867C246.26 9.55867 246.24 9.75867 246.2 9.99867C246.16 10.2387 246.1 10.4787 246.02 10.7187C247.1 10.8787 248.14 11.0587 249.14 11.2587C250.18 11.4187 251.1 11.6187 251.9 11.8587C255.06 12.7387 257.36 13.8987 258.8 15.3387C260.28 16.7387 261.02 18.2587 261.02 19.8987C261.02 21.6587 260.22 23.4187 258.62 25.1787C257.06 26.9387 254.84 28.4987 251.96 29.8587C249.12 31.2187 245.78 32.2187 241.94 32.8587C240.7 33.0587 239.6 33.1987 238.64 33.2787C237.72 33.3587 236.92 33.4187 236.24 33.4587C236.32 33.8587 236.5 34.6987 236.78 35.9787C237.06 37.2587 237.46 38.7787 237.98 40.5387C238.5 42.2587 239.16 44.0787 239.96 45.9987C240.8 47.9187 241.8 49.7387 242.96 51.4587C243.88 52.8187 244.82 53.9387 245.78 54.8187C246.74 55.6987 247.76 56.1387 248.84 56.1387C249.52 56.1387 250.22 55.9587 250.94 55.5987C251.7 55.2387 252.48 54.6587 253.28 53.8587C254.24 52.8987 255.1 51.8187 255.86 50.6187C256.66 49.3787 257.34 48.2187 257.9 47.1387C258.46 46.0587 258.84 45.2987 259.04 44.8587C259.36 44.2987 259.7 44.0187 260.06 44.0187C260.18 44.0187 260.24 44.0987 260.24 44.2587C260.24 44.3387 260.18 44.5387 260.06 44.8587C259.86 45.2987 259.56 45.9787 259.16 46.8987C258.76 47.7787 258.28 48.7587 257.72 49.8387C257.16 50.9187 256.56 51.9787 255.92 53.0187C255.28 54.0587 254.64 54.9387 254 55.6587C253.08 56.6587 252.04 57.3987 250.88 57.8787C249.76 58.3987 248.68 58.6587 247.64 58.6587ZM233.72 31.8387C234.88 31.6387 236.12 31.4987 237.44 31.4187C238.76 31.3387 240.06 31.2187 241.34 31.0587C243.42 30.7787 245.38 30.2387 247.22 29.4387C249.06 28.5987 250.68 27.5987 252.08 26.4387C253.52 25.2787 254.64 24.0587 255.44 22.7787C256.24 21.4587 256.64 20.1987 256.64 18.9987C256.64 16.2787 254.82 14.3987 251.18 13.3587C250.46 13.1587 249.52 12.9587 248.36 12.7587C247.24 12.5587 246.22 12.3787 245.3 12.2187C243.38 15.4987 241.4 18.7187 239.36 21.8787C237.36 25.0387 235.48 28.3587 233.72 31.8387ZM263.378 56.3787C261.898 56.3787 260.558 55.8987 259.358 54.9387C258.198 53.9787 257.618 52.5187 257.618 50.5587C257.618 48.7587 258.058 46.8387 258.938 44.7987C259.818 42.7187 260.938 40.8987 262.298 39.3387C263.458 37.9787 264.758 36.8587 266.198 35.9787C267.638 35.0987 268.998 34.6587 270.278 34.6587C271.158 34.6587 271.918 34.8987 272.558 35.3787C273.238 35.8987 273.578 36.6387 273.578 37.5987C273.578 38.5987 273.198 39.6987 272.438 40.8987C271.678 42.0987 270.598 43.2187 269.198 44.2587C268.598 44.6987 267.838 45.1187 266.918 45.5187C265.998 45.9187 265.078 46.2587 264.158 46.5387C263.238 46.7787 262.478 46.8987 261.878 46.8987C261.678 47.3787 261.478 48.0187 261.278 48.8187C261.118 49.6187 261.038 50.4387 261.038 51.2787C261.038 52.2787 261.238 53.1787 261.638 53.9787C262.038 54.7787 262.778 55.1787 263.858 55.1787C265.178 55.1787 266.378 54.7987 267.458 54.0387C268.538 53.2787 269.498 52.3387 270.338 51.2187C271.178 50.0587 271.878 48.8987 272.438 47.7387C273.038 46.5787 273.518 45.5987 273.878 44.7987C274.118 44.2387 274.438 43.9587 274.838 43.9587C275.038 43.9587 275.138 44.0587 275.138 44.2587C275.138 44.4187 275.078 44.6187 274.958 44.8587C274.398 46.0587 273.798 47.3387 273.158 48.6987C272.518 50.0187 271.758 51.2787 270.878 52.4787C269.998 53.6387 268.938 54.5787 267.698 55.2987C266.498 56.0187 265.058 56.3787 263.378 56.3787ZM262.298 45.8187C262.858 45.8187 263.798 45.6187 265.118 45.2187C266.438 44.7787 267.638 44.0987 268.718 43.1787C269.758 42.2587 270.558 41.2587 271.118 40.1787C271.678 39.0587 271.958 38.1187 271.958 37.3587C271.958 36.4787 271.638 36.0387 270.998 36.0387C270.518 36.0387 269.858 36.3587 269.018 36.9987C268.178 37.6387 267.138 38.7187 265.898 40.2387C265.138 41.1987 264.418 42.2387 263.738 43.3587C263.058 44.4787 262.578 45.2987 262.298 45.8187ZM286.961 56.3187C286.521 56.3587 286.021 56.2587 285.461 56.0187C284.901 55.7787 284.401 55.3387 283.961 54.6987C283.561 54.0587 283.361 53.1587 283.361 51.9987C283.361 51.0387 283.541 49.8787 283.901 48.5187C283.421 49.2787 282.801 50.2187 282.041 51.3387C281.281 52.4187 280.461 53.3787 279.581 54.2187C278.821 54.9387 278.101 55.4587 277.421 55.7787C276.741 56.0987 276.121 56.2587 275.561 56.2587C274.521 56.2587 273.681 55.7987 273.041 54.8787C272.401 53.9187 272.081 52.6787 272.081 51.1587C272.081 49.5587 272.481 47.7387 273.281 45.6987C274.081 43.6587 275.381 41.5387 277.181 39.3387C278.341 37.9387 279.741 36.8187 281.381 35.9787C283.061 35.0987 284.701 34.6587 286.301 34.6587C287.221 34.6587 288.101 34.8187 288.941 35.1387C289.781 35.4187 290.521 35.8987 291.161 36.5787C291.441 36.8587 291.581 37.1787 291.581 37.5387C291.581 37.7787 291.481 37.9787 291.281 38.1387C291.081 38.2987 290.821 38.3387 290.501 38.2587C290.061 36.8587 289.121 36.1587 287.681 36.1587C287.001 36.1587 286.221 36.3787 285.341 36.8187C283.981 37.5387 282.561 38.7187 281.081 40.3587C279.641 41.9987 278.381 43.6987 277.301 45.4587C277.141 45.6987 276.881 46.1587 276.521 46.8387C276.201 47.5187 275.881 48.2787 275.561 49.1187C275.241 49.9587 275.021 50.7787 274.901 51.5787C274.861 51.8187 274.841 51.9987 274.841 52.1187C274.841 52.1987 274.841 52.3387 274.841 52.5387C274.841 53.8587 275.341 54.5187 276.341 54.5187C277.541 54.5187 278.901 53.6387 280.421 51.8787C281.461 50.5987 282.401 49.2587 283.241 47.8587C284.081 46.4587 284.941 44.9587 285.821 43.3587C286.421 42.2787 286.981 41.3787 287.501 40.6587C288.021 39.9387 288.761 39.5787 289.721 39.5787C290.161 39.5787 290.601 39.6387 291.041 39.7587C291.481 39.8787 291.941 39.8987 292.421 39.8187C292.101 40.1387 291.661 40.7387 291.101 41.6187C290.581 42.4987 290.021 43.4987 289.421 44.6187C288.821 45.7387 288.281 46.8787 287.801 48.0387C287.321 49.1987 286.981 50.1987 286.781 51.0387C286.741 51.2787 286.681 51.6187 286.601 52.0587C286.561 52.4987 286.541 52.8187 286.541 53.0187C286.541 54.1387 286.861 54.6987 287.501 54.6987C288.141 54.6987 288.821 54.3187 289.541 53.5587C290.301 52.7987 291.041 51.8587 291.761 50.7387C292.481 49.6187 293.141 48.4987 293.741 47.3787C294.341 46.2187 294.821 45.2787 295.181 44.5587C295.341 44.1587 295.581 43.9587 295.901 43.9587C296.101 43.9587 296.201 44.0987 296.201 44.3787C296.201 44.4987 296.141 44.7187 296.021 45.0387C295.541 46.0387 294.961 47.1787 294.281 48.4587C293.601 49.6987 292.861 50.9187 292.061 52.1187C291.261 53.2787 290.421 54.2587 289.541 55.0587C288.701 55.8187 287.841 56.2387 286.961 56.3187ZM298.094 56.3187C296.414 56.3187 295.274 55.8787 294.674 54.9987C294.074 54.0787 293.774 52.9987 293.774 51.7587C293.774 50.4787 293.954 49.1587 294.314 47.7987C294.674 46.4387 294.994 45.2987 295.274 44.3787C295.914 42.1387 296.714 39.7587 297.674 37.2387C298.674 34.6787 299.754 32.1787 300.914 29.7387C302.114 27.2587 303.294 25.0387 304.454 23.0787C305.374 21.5187 306.354 20.3587 307.394 19.5987C308.474 18.7987 309.414 18.3987 310.214 18.3987C310.854 18.3987 311.354 18.6387 311.714 19.1187C312.114 19.5587 312.314 20.2387 312.314 21.1587C312.314 21.7987 312.194 22.5587 311.954 23.4387C311.754 24.3187 311.394 25.3187 310.874 26.4387C309.474 29.5587 307.794 32.6787 305.834 35.7987C303.914 38.9187 301.474 41.8387 298.514 44.5587C298.354 45.0787 298.134 45.6987 297.854 46.4187C297.614 47.0987 297.394 47.7987 297.194 48.5187C296.954 49.5987 296.834 50.5187 296.834 51.2787C296.834 52.5187 297.074 53.4587 297.554 54.0987C298.074 54.6987 298.694 54.9987 299.414 54.9987C300.054 54.9987 300.734 54.7787 301.454 54.3387C302.174 53.8587 302.854 53.1787 303.494 52.2987C304.454 50.8987 305.314 49.4787 306.074 48.0387C306.874 46.5587 307.474 45.4187 307.874 44.6187C308.114 44.1787 308.374 43.9587 308.654 43.9587C308.854 43.9587 308.954 44.0787 308.954 44.3187C308.954 44.5187 308.894 44.7387 308.774 44.9787C308.414 45.7787 307.934 46.8187 307.334 48.0987C306.774 49.3387 306.054 50.5987 305.174 51.8787C304.334 53.1187 303.314 54.1787 302.114 55.0587C300.954 55.8987 299.614 56.3187 298.094 56.3187ZM298.994 42.6387C300.434 41.1587 301.834 39.4587 303.194 37.5387C304.554 35.5787 305.814 33.5587 306.974 31.4787C308.174 29.3587 309.174 27.3587 309.974 25.4787C310.254 24.8787 310.474 24.2187 310.634 23.4987C310.834 22.7787 310.934 22.1787 310.934 21.6987C310.934 21.1387 310.794 20.8587 310.514 20.8587C310.354 20.8587 310.114 21.0187 309.794 21.3387C309.474 21.6187 309.054 22.1187 308.534 22.8387C307.774 23.8387 306.934 25.1987 306.014 26.9187C305.134 28.6387 304.234 30.4787 303.314 32.4387C302.394 34.3987 301.554 36.2987 300.794 38.1387C300.034 39.9387 299.434 41.4387 298.994 42.6387Z" fill="white"/>
</svg>
